<svg xmlns="http://www.w3.org/2000/svg" viewBox="0 0 473 118.5" enable-background="new 0 0 473 118.5"><style type="text/css">.st0{fill-rule:evenodd;clip-rule:evenodd;} .st1{fill-rule:evenodd;clip-rule:evenodd;fill:#FFED00;}</style><path d="M286.4.3h55.1v8.2l3.7-8.2H473l-8.5 36.8c-2.4.8-6.4 1.5-8.2 3l-.9.9-14.5 16.2 7.2 22.2 8.5 1.9-8.6 37.2c-152.4 0-299.2 0-448.1 0l8.8-38 5.1-1.2.2-1.1 9.3-40.3-4.6-1.1L27.2.4c18 0 36.3-.9 54.3.4 5.5.6 11.7 1.8 16.4 4.6L99 .3h187.4" class="st0"/><path d="M156.5 80.8c-.9 3.8-1.2 6.3-.7 7.5.3 1 1.5 1.8 3.2 2.2l-3.7 15.9h-31.2l3.7-15.9c1.9-.3 3.4-1.2 4.2-2.2 1-1.2 1.9-3.7 2.8-7.5l10.1-43.4c.9-3.8 1-6.5.6-7.3-.3-1.2-1.3-1.9-3.2-2.5l3.5-15.1H177l-3.5 15.1c-1.8.4-3.2 1.3-4.2 2.3-.9 1.2-1.8 3.7-2.6 7.5l-2.9 12.5h19.9l2.9-12.5c.9-3.8 1.2-6.5.7-7.5-.3-1-1.5-1.8-3.2-2.3l3.5-15.1h31.2l-3.5 15.1c-1.9.4-3.4 1.3-4.2 2.3-1 1.2-1.9 3.7-2.8 7.5L198 80.8c-.9 3.8-1 6.2-.7 7.3.4 1.2 1.5 2.1 3.4 2.3l-3.7 15.9h-31.2l3.7-15.9c1.9-.3 3.2-1 4.1-2.2 1-1.2 1.9-3.7 2.8-7.5l3.5-15H160l-3.5 15.1m-37.1 0c-.9 3.8-1 6.3-.7 7.5.3 1 1.5 1.9 3.1 2.2l-3.7 15.9h-31l3.7-15.9c1.9-.3 3.4-1.2 4.2-2.2 1-1.2 1.9-3.7 2.8-7.5l10.1-43.4c.9-3.8 1-6.5.6-7.3-.3-1.2-1.3-1.9-3.1-2.5l3.5-15.1h31l-3.5 15.1c-1.8.4-3.2 1.3-4.2 2.3-.9 1.2-1.8 3.7-2.6 7.5l-10.2 43.4zm-104 25.6l3.7-15.9c1.9-.3 3.4-1.2 4.2-2.2 1-1.2 1.9-3.7 2.8-7.5l10.1-43.4c.9-3.8 1-6.5.6-7.3-.3-1.2-1.3-1.9-3.2-2.5l3.5-15.1h36c11 0 18.4 2.1 22.5 6 4.1 4.1 5.1 10.6 3.1 19.5-1.3 5.1-3.4 9.5-6.4 12.9-2.9 3.5-6.9 6-11.4 7.5 4.4 1.5 7.5 4.1 9.1 7.8 1.6 3.8 1.8 8.7.3 14.7-2 9.1-6 15.6-11.7 19.5-5.7 4-14.5 6-25.9 6H15.4zM46.1 88h9.4c4.2 0 7.5-1 9.7-2.6 2.2-1.6 3.8-4.6 4.7-8.5.9-4 .6-6.9-.9-8.5-1.6-1.9-4.5-2.8-8.8-2.8h-8.9L46.1 88zm9-38.4h8.3c4 0 7-.7 9.1-2.2 2.2-1.3 3.5-3.7 4.2-6.9.9-3.5.6-6-.7-7.6-.7-.7-1.6-1.3-3.1-1.8-1.3-.3-3.1-.6-5.1-.6h-8.3l-4.4 19.1zm366.3-36.9l-3.5 15c-1.9.5-3.3 1.2-4.2 2.3-.7 1.2-1.6 3.5-2.6 7.5l-3.7 16 15.9-17.9c1.2-1.4 2.3-3.1 3.3-4.5.7-1.6 1.4-3.8 2.1-6.3l.2-1.6 2.6-10.6h26.2l-3.5 15c-1.4.5-2.8 1.2-4.2 1.9-1.2.9-2.6 2.1-4 3.5l-18.7 21.4 10.3 31.7c.5 1.4 1.2 2.6 1.6 3.1.7.7 1.6 1.2 2.8 1.4l-3.5 15.7h-28.8l2.8-12c.7-2.3.9-4.7.9-6.3 0-1.9-.2-3.5-.7-4.9l-7-22.1-4.7 20c-.9 3.8-1.2 6.3-.9 7.3.5 1.2 1.6 1.9 3.3 2.4l-3.5 15.7H369l3.5-15.7c1.9-.2 3.5-1.2 4.5-2.4.9-1.2 1.9-3.5 2.8-7.3l9.8-43.5c.9-4 1.2-6.3.7-7.5-.2-.9-1.4-1.9-3-2.3l3.3-15h30.8m-108 21.6l-11 47.5c-.9 3.5-1.2 5.9-.7 6.8.5 1.2 1.6 1.9 3.5 2.1l-3.7 15.7h-27.2l3.7-15.7c1.6 0 3-.7 4.2-2.1 1.2-1.4 2.1-3.5 2.6-6.3l10.5-45.1c.7-2.8.7-5.2.5-6.3-.5-1.4-1.6-2.3-3.3-2.8l3.5-15.3h33.3l-.2 53.2L353 12.7h33.7L383.2 28c-2.1.5-3.5 1.2-4.7 2.3-.9.9-1.6 3.5-2.6 7.3l-9.8 42.5c-.9 4.2-1.2 7-.9 8.2.5 1.2 1.6 2.1 3.5 2.4l-3.7 15.7h-30.7l3.7-15.7c1.6-.2 3-1.2 4-2.6 1.2-1.4 2.1-4 3-8l10.3-44.4-33 70.7h-8.7l-.2-72.1zm-76.3 32H250l1.9-36-14.8 36zm-36.3 40.1l3.7-15.7c1.4-.5 2.8-1.2 3.7-2.4 1.2-1.4 2.6-3.8 4-7.5l29-68.1h32.3L272 82.2c0 2.8.2 4.9.7 6.1.5.9 1.4 1.9 2.8 2.4l-3.7 15.7h-31.9l3.7-15.7c1.4 0 2.6-.5 3.5-1.2 1.2-.9 1.9-1.9 2.1-3.3l.2-1.2.2-1.4v-4h-18l-1.6 3.5-.5 1.6-.2 1.2c-.5 1.4-.2 2.6.2 3.5.7.7 1.9 1.2 3.5 1.2l-3.5 15.7h-28.7z" class="st1"/><path d="M446.2 93.2l-114.4 2.1 114.4 2v-4.1" class="st0"/><path d="M442.4 90.4l-110.5 2 110.5 2v-4" class="st1"/><path d="M438.7 75.3l-162.9 2.1 162.9 2v-4.1" class="st0"/><path d="M434.7 72.5l-159 2.1 159 2v-4.1" class="st1"/><path d="M459.1 25.7l-239.5 2.1 239.5 2v-4.1m-25.6 28.7l-221.1 2.1 221.1 2v-4.1" class="st0"/><path d="M455.3 22.9L226.4 25l228.9 2v-4.1m-25.5 28.7l-216.6 2.1 216.6 2v-4.1" class="st1"/></svg>